<?xml version="1.0" encoding="UTF-8"?>
<svg version="1.1" xmlns="http://www.w3.org/2000/svg" width="512" height="512">
<path d="M0 0 C4.67661782 4.44278693 6.74180047 7.48235466 6.9375 14 C6.76315224 19.39807491 5.74869065 24.31069472 4.25390625 29.48828125 C-2.71672621 56.1789413 3.9506863 86.32465745 17.37109375 109.87890625 C20.64733998 115.38366514 24.43025978 120.43414481 28.5 125.375 C29.27085937 126.31085938 30.04171875 127.24671875 30.8359375 128.2109375 C48.82617829 148.9957788 75.37393473 161.99446729 102.5 165.375 C106.75488335 165.65414413 110.98683804 165.7082523 115.25 165.6875 C116.37801025 165.68548584 117.50602051 165.68347168 118.66821289 165.68139648 C128.5867577 165.56293857 138.04613653 164.52628782 147.5 161.375 C154.64981754 160.68051135 159.74644448 160.91305899 165.5 165.375 C168.95694237 168.92058192 169.8312633 171.93271818 170.125 176.75 C169.02775209 204.62695475 145.47018838 232.23073548 126.25 250.5 C93.72277133 279.28846675 54.01415008 288.45901437 11.5 286.375 C-15.29687638 284.14607588 -43.01277687 272.78757096 -63.5 255.375 C-64.33144531 254.66988281 -65.16289062 253.96476563 -66.01953125 253.23828125 C-68.5677596 251.00306363 -71.04020918 248.70710703 -73.5 246.375 C-74.45777344 245.48167969 -75.41554687 244.58835937 -76.40234375 243.66796875 C-103.48771864 217.91121108 -118.04211254 181.32181038 -119.4765625 144.25024414 C-120.32728016 103.41199863 -105.26390826 65.66045787 -77.2578125 36.20703125 C-61.6779668 20.20789791 -24.14736374 -11.21127602 0 0 Z " fill="#000000" transform="translate(230.5,113.625)"/>
<path d="M0 0 C3.82793542 4.28364202 5.66068887 8.43404233 5.6015625 14.23828125 C4.59608937 20.70682508 1.13766517 24.44196069 -3.375 28.9375 C-4.10589844 29.72769531 -4.83679688 30.51789063 -5.58984375 31.33203125 C-10.98777753 37.04369109 -14.85044705 40.36164781 -22.8125 41.375 C-28.87922394 40.62996373 -32.98531435 38.6835153 -36.8125 33.875 C-39.21783639 29.3529676 -40.30497057 25.02247668 -39.375 19.9375 C-36.64338416 14.28771896 -33.09624329 10.11060402 -28.6875 5.6875 C-28.11322266 5.07648438 -27.53894531 4.46546875 -26.94726562 3.8359375 C-18.86867411 -4.32281645 -9.91384923 -6.05846342 0 0 Z " fill="#000000" transform="translate(414.375,96.0625)"/>
<path d="M0 0 C4.07510151 3.3234553 6.96993006 6.19760313 7.72265625 11.57421875 C7.80115132 20.27147202 4.07814097 25.41940403 -1.79394531 31.57397461 C-12.36952893 42.25617939 -12.36952893 42.25617939 -19.27734375 42.57421875 C-24.13312232 42.32291802 -27.50752625 41.04466278 -31.65234375 38.51171875 C-35.48027917 34.22807673 -37.31303262 30.07767642 -37.25390625 24.2734375 C-36.24789912 17.80145829 -32.78709744 14.07539876 -28.27734375 9.57421875 C-27.55804688 8.78402344 -26.83875 7.99382812 -26.09765625 7.1796875 C-19.04884712 -0.36912366 -10.05545145 -6.29543701 0 0 Z " fill="#000000" transform="translate(129.27734375,377.42578125)"/>
<path d="M0 0 C2.09690827 1.78133396 4.02729759 3.66792259 5.97265625 5.61328125 C6.76285156 6.32097656 7.55304688 7.02867187 8.3671875 7.7578125 C13.42002867 12.418834 17.23103771 16.57398399 17.97265625 23.61328125 C17.75565961 28.4595396 16.43355862 31.85907738 13.91015625 35.98828125 C9.62651423 39.81621667 5.47611392 41.64897012 -0.328125 41.58984375 C-6.80354643 40.58330156 -10.52051817 37.12010683 -15.02734375 32.61328125 C-15.81753906 31.90558594 -16.60773438 31.19789063 -17.421875 30.46875 C-22.47471617 25.8077285 -26.28572521 21.65257851 -27.02734375 14.61328125 C-26.81034711 9.7670229 -25.48824612 6.36748512 -22.96484375 2.23828125 C-16.19492463 -3.81143371 -7.74751552 -5.29936033 0 0 Z " fill="#000000" transform="translate(402.02734375,378.38671875)"/>
<path d="M0 0 C2.09690827 1.78133396 4.02729759 3.66792259 5.97265625 5.61328125 C6.76285156 6.32097656 7.55304688 7.02867188 8.3671875 7.7578125 C13.42002867 12.418834 17.23103771 16.57398399 17.97265625 23.61328125 C17.75565961 28.4595396 16.43355862 31.85907738 13.91015625 35.98828125 C9.62651423 39.81621667 5.47611392 41.64897012 -0.328125 41.58984375 C-6.80354643 40.58330156 -10.52051817 37.12010683 -15.02734375 32.61328125 C-15.81753906 31.90558594 -16.60773438 31.19789062 -17.421875 30.46875 C-22.47471617 25.8077285 -26.28572521 21.65257851 -27.02734375 14.61328125 C-26.81034711 9.7670229 -25.48824612 6.36748512 -22.96484375 2.23828125 C-16.19492463 -3.81143371 -7.74751552 -5.29936033 0 0 Z " fill="#000000" transform="translate(119.02734375,95.38671875)"/>
<path d="M0 0 C4.63467863 2.15181508 8.10620753 5.19157704 10 10 C10.59657804 14.67344697 10.55785226 19.29468263 10.5 24 C10.51546875 25.258125 10.5309375 26.51625 10.546875 27.8125 C10.49867764 39.18707649 10.49867764 39.18707649 6 44 C2.18069828 47.62833663 -0.88279006 48.31000458 -6 48.5 C-12.52189504 48.25785043 -15.6860488 46.4755875 -20.125 41.7265625 C-23.48400724 36.54730228 -22.57281651 29.92240933 -22.5 24 C-22.51546875 22.741875 -22.5309375 21.48375 -22.546875 20.1875 C-22.49867764 8.81292351 -22.49867764 8.81292351 -18 4 C-12.72867143 -1.00776214 -6.89190982 -0.92775709 0 0 Z " fill="#000000" transform="translate(262,432)"/>
<path d="M0 0 C1.258125 -0.01546875 2.51625 -0.0309375 3.8125 -0.046875 C15.18707649 0.00132236 15.18707649 0.00132236 20 4.5 C23.62833663 8.31930172 24.31000458 11.38279006 24.5 16.5 C24.25785043 23.02189504 22.4755875 26.1860488 17.7265625 30.625 C12.54730228 33.98400724 5.92240933 33.07281651 0 33 C-1.258125 33.01546875 -2.51625 33.0309375 -3.8125 33.046875 C-15.18707649 32.99867764 -15.18707649 32.99867764 -20 28.5 C-23.62833663 24.68069828 -24.31000458 21.61720994 -24.5 16.5 C-24.25785043 9.97810496 -22.4755875 6.8139512 -17.7265625 2.375 C-12.54730228 -0.98400724 -5.92240933 -0.07281651 0 0 Z " fill="#000000" transform="translate(456,239.5)"/>
<path d="M0 0 C1.258125 -0.01546875 2.51625 -0.0309375 3.8125 -0.046875 C15.18707649 0.00132236 15.18707649 0.00132236 20 4.5 C23.62833663 8.31930172 24.31000458 11.38279006 24.5 16.5 C24.25785043 23.02189504 22.4755875 26.1860488 17.7265625 30.625 C12.54730228 33.98400724 5.92240933 33.07281651 0 33 C-1.258125 33.01546875 -2.51625 33.0309375 -3.8125 33.046875 C-15.18707649 32.99867764 -15.18707649 32.99867764 -20 28.5 C-23.62833663 24.68069828 -24.31000458 21.61720994 -24.5 16.5 C-24.25785043 9.97810496 -22.4755875 6.8139512 -17.7265625 2.375 C-12.54730228 -0.98400724 -5.92240933 -0.07281651 0 0 Z " fill="#000000" transform="translate(56,239.5)"/>
<path d="M0 0 C4.63467863 2.15181508 8.10620753 5.19157704 10 10 C10.59657804 14.67344697 10.55785226 19.29468263 10.5 24 C10.51546875 25.258125 10.5309375 26.51625 10.546875 27.8125 C10.49867764 39.18707649 10.49867764 39.18707649 6 44 C2.18069828 47.62833663 -0.88279006 48.31000458 -6 48.5 C-12.52189504 48.25785043 -15.6860488 46.4755875 -20.125 41.7265625 C-23.48400724 36.54730228 -22.57281651 29.92240933 -22.5 24 C-22.51546875 22.741875 -22.5309375 21.48375 -22.546875 20.1875 C-22.49867764 8.81292351 -22.49867764 8.81292351 -18 4 C-12.72867143 -1.00776214 -6.89190982 -0.92775709 0 0 Z " fill="#000000" transform="translate(262,32)"/>
</svg>
